# xmcd CD database file
#
# Track frame offsets:
#	150
#	14579
#	30507
#	45098
#	59239
#	74052
#	86696
#	99382
#	113660
#	129862
#	143430
#	158466
#	175004
#	188893
#	204777
#	220862
#	235126
#	251072
#	264591
#	277881
#	290371
#
# Disc length: 4046 seconds
#
# Revision: 0
# Processed by: cddbd v1.5.1PL0 Copyright (c) Steve Scherf et al.
# Submitted via: CDex 1.51
#
DISCID=1e0fcc15
DTITLE=Charlie Parker - Dancing In The Dark
DYEAR=2004
DGENRE=Jazz
TTITLE0=Dancing In The Dark
TTITLE1=Just Friends
TTITLE2=I Didn't Know What Time It Was
TTITLE3=April In Paris
TTITLE4=Everything Happens To Me
TTITLE5=Summertime
TTITLE6=If I Should Lose You
TTITLE7=Out Of Nowhere
TTITLE8=I'm In The Mood For Love
TTITLE9=Laura
TTITLE10=The Can't Take That Away From Me
TTITLE11=East Of The Sun (And West Of The Moon)
TTITLE12=I'll Remeber April
TTITLE13=Easy To Love
TTITLE14=Temptation
TTITLE15=Love
TTITLE16=Autumn In New York
TTITLE17=Stella By Starlight
TTITLE18=What Is This Thing Called Love
TTITLE19=Repetition
TTITLE20=Rocker
EXTD=YEAR: 2004
EXTT0=
EXTT1=
EXTT2=
EXTT3=
EXTT4=
EXTT5=
EXTT6=
EXTT7=
EXTT8=
EXTT9=
EXTT10=
EXTT11=
EXTT12=
EXTT13=
EXTT14=
EXTT15=
EXTT16=
EXTT17=
EXTT18=
EXTT19=
EXTT20=
PLAYORDER=
